<svg width="24" height="24" viewBox="0 0 24 24" fill="none" xmlns="http://www.w3.org/2000/svg">
<path d="M7.3416 10.0845L12.0028 5.42516L16.666 10.0883L19.3767 7.37572L12.0028 0L4.62902 7.37383L7.3416 10.0845Z" fill="#F3BA2F"/>
<path d="M0 12.0012L2.71069 9.28857L5.42327 12.0012L2.71069 14.7118L0 12.0012Z" fill="#F3BA2F"/>
<path d="M7.3416 13.9155L12.0028 18.5767L16.666 13.9136L19.3786 16.6224L12.0047 23.9981L4.62902 16.6281L7.3416 13.9155Z" fill="#F3BA2F"/>
<path d="M18.5767 12.0012L21.2874 9.28857L24 11.9993L21.2874 14.7137L18.5767 12.0012Z" fill="#F3BA2F"/>
<path d="M14.7533 11.999L12.0028 9.24658L9.96888 11.2805L9.73383 11.5137L9.25235 11.9952L12.0028 14.7438L14.7533 12.0009V11.999Z" fill="#F3BA2F"/>
</svg>
