<svg width="22" height="24" viewBox="0 0 22 24" fill="none" xmlns="http://www.w3.org/2000/svg">
<path d="M2.06154 2.02686C3.18722 2.02686 4.10162 2.94125 4.10162 4.06693V19.9199C4.10162 21.0456 3.18722 21.96 2.06154 21.96C0.935866 21.96 0.0214691 21.0456 0.0214691 19.9199V4.06693C0.0249327 2.94125 0.935866 2.02686 2.06154 2.02686Z" fill="#24AE8F"/>
<path d="M15.2337 0.79344C16.0269 1.59354 16.0199 2.88547 15.2198 3.67517L3.94922 14.828C3.14912 15.6212 1.85719 15.6143 1.06748 14.8142C0.274313 14.0141 0.28124 12.7222 1.08134 11.9324L12.352 0.783049C13.1521 -0.0135842 14.444 -0.00665687 15.2337 0.79344Z" fill="#24AE8F"/>
<path d="M15.2337 23.1788C16.0269 22.3787 16.0199 21.0868 15.2198 20.2971L3.94922 9.1477C3.14912 8.35453 1.85719 8.36146 1.06748 9.16156C0.274313 9.96165 0.28124 11.2536 1.08134 12.0433L12.352 23.1927C13.1521 23.9893 14.444 23.9824 15.2337 23.1788Z" fill="#24AE8F"/>
<path d="M21.3816 14.6202C22.1748 15.4203 22.1713 16.7122 21.3747 17.5054L15.445 23.4074C14.6449 24.2005 13.353 24.1971 12.5598 23.4004C11.7666 22.6003 11.7701 21.3084 12.5667 20.5152L18.4964 14.6132C19.2931 13.8201 20.585 13.8235 21.3816 14.6202Z" fill="#24AE8F"/>
<path d="M21.3816 9.37993C22.1748 8.57983 22.1713 7.2879 21.3747 6.49473L15.445 0.592719C14.6449 -0.200451 13.353 -0.196987 12.5598 0.599646C11.7666 1.39974 11.7701 2.69167 12.5667 3.48484L18.4964 9.38686C19.2965 10.18 20.5885 10.18 21.3816 9.37993Z" fill="#24AE8F"/>
<path d="M14.018 14.0591C15.1542 14.0591 16.0754 13.138 16.0754 12.0017C16.0754 10.8655 15.1542 9.94434 14.018 9.94434C12.8817 9.94434 11.9606 10.8655 11.9606 12.0017C11.9606 13.138 12.8817 14.0591 14.018 14.0591Z" fill="#24AE8F"/>
</svg>
