<svg width="31" height="28" viewBox="0 0 31 28" fill="none" xmlns="http://www.w3.org/2000/svg">
<rect width="25" height="25" rx="12.5" fill="#544590" fill-opacity="0.51"/>
<path d="M7 6.625V18.875H19.25V6.625H7ZM17.1719 9.55078L16.5156 10.1797C16.4609 10.207 16.4336 10.2891 16.4336 10.3438V14.9922C16.4336 15.0469 16.4609 15.1289 16.5156 15.1562L17.1445 15.7852V15.9219H13.918V15.7852L14.6016 15.1562C14.6562 15.0742 14.6562 15.0742 14.6562 14.9648V11.2188L12.7969 15.9219H12.5508L10.418 11.2188V14.3633C10.3906 14.5 10.4453 14.6367 10.5273 14.7188L11.4023 15.7852V15.9219H8.94141V15.7852L9.78906 14.7188C9.89844 14.6367 9.92578 14.5 9.89844 14.3633V10.7266C9.92578 10.6445 9.87109 10.5352 9.81641 10.4531L9.05078 9.55078V9.38672H11.4297L13.2617 13.4336L14.9023 9.41406H17.1719V9.55078Z" fill="#CCCCCC"/>
</svg>
