<svg width="30" height="28" viewBox="0 0 30 28" fill="none" xmlns="http://www.w3.org/2000/svg">
<rect width="25" height="25" rx="12.5" fill="#544590" fill-opacity="0.51"/>
<path d="M10.5117 16.6328C10.5117 16.5781 10.457 16.5234 10.375 16.5234C10.293 16.5234 10.2383 16.5781 10.2383 16.6328C10.2383 16.6875 10.293 16.7422 10.375 16.7148C10.457 16.7148 10.5117 16.6875 10.5117 16.6328ZM9.66406 16.4961C9.66406 16.5508 9.71875 16.6328 9.80078 16.6328C9.85547 16.6602 9.9375 16.6328 9.96484 16.5781C9.96484 16.5234 9.9375 16.4688 9.85547 16.4414C9.77344 16.4141 9.69141 16.4414 9.66406 16.4961ZM10.8945 16.4688C10.8125 16.4688 10.7578 16.5234 10.7578 16.6055C10.7578 16.6602 10.8398 16.6875 10.9219 16.6602C11.0039 16.6328 11.0586 16.6055 11.0312 16.5508C11.0312 16.4961 10.9492 16.4414 10.8945 16.4688ZM12.6719 5.96875C8.89844 5.96875 6 8.86719 6 12.6406C6 15.6758 7.88672 18.2734 10.6211 19.2031C10.9766 19.2578 11.0859 19.0391 11.0859 18.875C11.0859 18.6836 11.0859 17.7539 11.0859 17.1797C11.0859 17.1797 9.17188 17.5898 8.76172 16.3594C8.76172 16.3594 8.46094 15.5664 8.02344 15.375C8.02344 15.375 7.39453 14.9375 8.05078 14.9375C8.05078 14.9375 8.73438 14.9922 9.11719 15.6484C9.71875 16.7148 10.7031 16.4141 11.1133 16.2227C11.168 15.7852 11.332 15.4844 11.5508 15.293C10.0195 15.1289 8.46094 14.9102 8.46094 12.2852C8.46094 11.5195 8.67969 11.1641 9.11719 10.6719C9.03516 10.4805 8.81641 9.76953 9.19922 8.8125C9.74609 8.64844 11.0859 9.55078 11.0859 9.55078C11.6328 9.38672 12.207 9.33203 12.7812 9.33203C13.3828 9.33203 13.957 9.38672 14.5039 9.55078C14.5039 9.55078 15.8164 8.62109 16.3906 8.8125C16.7734 9.76953 16.5273 10.4805 16.4727 10.6719C16.9102 11.1641 17.1836 11.5195 17.1836 12.2852C17.1836 14.9102 15.5703 15.1289 14.0391 15.293C14.2852 15.5117 14.5039 15.9219 14.5039 16.5781C14.5039 17.4805 14.4766 18.6289 14.4766 18.8477C14.4766 19.0391 14.6133 19.2578 14.9688 19.1758C17.7031 18.2734 19.5625 15.6758 19.5625 12.6406C19.5625 8.86719 16.4727 5.96875 12.6719 5.96875ZM8.65234 15.4023C8.59766 15.4297 8.625 15.5117 8.65234 15.5664C8.70703 15.5938 8.76172 15.6211 8.81641 15.5938C8.84375 15.5664 8.84375 15.4844 8.78906 15.4297C8.73438 15.4023 8.67969 15.375 8.65234 15.4023ZM8.35156 15.1836C8.32422 15.2383 8.35156 15.2656 8.40625 15.293C8.46094 15.3203 8.51562 15.3203 8.54297 15.2656C8.54297 15.2383 8.51562 15.2109 8.46094 15.1836C8.40625 15.1562 8.37891 15.1562 8.35156 15.1836ZM9.22656 16.168C9.19922 16.1953 9.19922 16.2773 9.28125 16.332C9.33594 16.3867 9.41797 16.4141 9.44531 16.3594C9.47266 16.332 9.47266 16.25 9.41797 16.1953C9.36328 16.1406 9.28125 16.1133 9.22656 16.168ZM8.92578 15.7578C8.87109 15.7852 8.87109 15.8672 8.92578 15.9219C8.98047 15.9766 9.03516 16.0039 9.08984 15.9766C9.11719 15.9492 9.11719 15.8672 9.08984 15.8125C9.03516 15.7578 8.98047 15.7305 8.92578 15.7578Z" fill="#CCCCCC"/>
</svg>
