<svg width="31" height="28" viewBox="0 0 31 28" fill="none" xmlns="http://www.w3.org/2000/svg">
<rect width="25" height="25" rx="12.5" fill="#544590" fill-opacity="0.51"/>
<path d="M13.125 9.60547C11.375 9.60547 9.98047 11.0273 9.98047 12.75C9.98047 14.5 11.375 15.8945 13.125 15.8945C14.8477 15.8945 16.2695 14.5 16.2695 12.75C16.2695 11.0273 14.8477 9.60547 13.125 9.60547ZM13.125 14.8008C12.0039 14.8008 11.0742 13.8984 11.0742 12.75C11.0742 11.6289 11.9766 10.7266 13.125 10.7266C14.2461 10.7266 15.1484 11.6289 15.1484 12.75C15.1484 13.8984 14.2461 14.8008 13.125 14.8008ZM17.1172 9.49609C17.1172 9.08594 16.7891 8.75781 16.3789 8.75781C15.9688 8.75781 15.6406 9.08594 15.6406 9.49609C15.6406 9.90625 15.9688 10.2344 16.3789 10.2344C16.7891 10.2344 17.1172 9.90625 17.1172 9.49609ZM19.1953 10.2344C19.1406 9.25 18.9219 8.375 18.2109 7.66406C17.5 6.95312 16.625 6.73438 15.6406 6.67969C14.6289 6.625 11.5938 6.625 10.582 6.67969C9.59766 6.73438 8.75 6.95312 8.01172 7.66406C7.30078 8.375 7.08203 9.25 7.02734 10.2344C6.97266 11.2461 6.97266 14.2812 7.02734 15.293C7.08203 16.2773 7.30078 17.125 8.01172 17.8633C8.75 18.5742 9.59766 18.793 10.582 18.8477C11.5938 18.9023 14.6289 18.9023 15.6406 18.8477C16.625 18.793 17.5 18.5742 18.2109 17.8633C18.9219 17.125 19.1406 16.2773 19.1953 15.293C19.25 14.2812 19.25 11.2461 19.1953 10.2344ZM17.8828 16.3594C17.6914 16.9062 17.2539 17.3164 16.7344 17.5352C15.9141 17.8633 14 17.7812 13.125 17.7812C12.2227 17.7812 10.3086 17.8633 9.51562 17.5352C8.96875 17.3164 8.55859 16.9062 8.33984 16.3594C8.01172 15.5664 8.09375 13.6523 8.09375 12.75C8.09375 11.875 8.01172 9.96094 8.33984 9.14062C8.55859 8.62109 8.96875 8.21094 9.51562 7.99219C10.3086 7.66406 12.2227 7.74609 13.125 7.74609C14 7.74609 15.9141 7.66406 16.7344 7.99219C17.2539 8.18359 17.6641 8.62109 17.8828 9.14062C18.2109 9.96094 18.1289 11.875 18.1289 12.75C18.1289 13.6523 18.2109 15.5664 17.8828 16.3594Z" fill="#CCCCCC"/>
</svg>
