<svg width="30" height="28" viewBox="0 0 30 28" fill="none" xmlns="http://www.w3.org/2000/svg">
<rect width="25" height="25" rx="12.5" fill="#544590" fill-opacity="0.51"/>
<path d="M11.4961 14.1172C11.8789 14.1172 12.1797 13.8164 12.1797 13.4336C12.1797 13.0781 11.8789 12.75 11.4961 12.75C11.1133 12.75 10.8125 13.0781 10.8125 13.4336C10.8125 13.8164 11.1133 14.1172 11.4961 14.1172ZM19.7812 12.75C19.7812 9.00391 16.7461 5.96875 13 5.96875C9.25391 5.96875 6.21875 9.00391 6.21875 12.75C6.21875 16.4961 9.25391 19.5312 13 19.5312C16.7461 19.5312 19.7812 16.4961 19.7812 12.75ZM16.1445 11.6289C17.1016 11.6289 17.4023 12.9141 16.5547 13.3516C16.582 13.4883 16.6094 13.625 16.6094 13.7891C16.6094 15.2109 14.9961 16.3867 13 16.3867C11.0039 16.3867 9.39062 15.2109 9.39062 13.7891C9.39062 13.625 9.39062 13.4883 9.41797 13.3516C8.57031 12.9141 8.87109 11.6289 9.82812 11.6289C10.0742 11.6289 10.3203 11.7383 10.4844 11.9023C11.0859 11.4922 11.9062 11.2188 12.8086 11.1914L13.3555 8.8125C13.3555 8.73047 13.4375 8.67578 13.5195 8.70312L15.2148 9.05859C15.3242 8.83984 15.543 8.70312 15.8164 8.70312C16.1992 8.70312 16.5 9.00391 16.5 9.38672C16.5 9.74219 16.1992 10.043 15.8164 10.043C15.4336 10.043 15.1328 9.74219 15.1328 9.38672L13.6289 9.03125L13.1367 11.1914C14.0664 11.2188 14.8867 11.4922 15.4883 11.9023C15.6797 11.7383 15.8984 11.6289 16.1445 11.6289ZM14.2578 14.8008C13.7656 15.3203 12.1797 15.293 11.7148 14.8008C11.6602 14.7461 11.5508 14.7461 11.4688 14.8008C11.4141 14.8828 11.4141 14.9922 11.4688 15.0469C12.0977 15.6758 13.875 15.6758 14.5039 15.0469C14.5586 14.9922 14.5586 14.8828 14.5039 14.8008C14.4219 14.7461 14.3398 14.7461 14.2578 14.8008ZM14.4766 12.75C14.0938 12.75 13.793 13.0781 13.793 13.4336C13.793 13.8164 14.1211 14.1172 14.4766 14.1172C14.8594 14.1172 15.1602 13.8164 15.1602 13.4336C15.1602 13.0781 14.8594 12.75 14.4766 12.75Z" fill="#CCCCCC"/>
</svg>
