<svg width="28" height="28" viewBox="0 0 28 28" fill="none" xmlns="http://www.w3.org/2000/svg">
<rect width="25" height="25" rx="12.5" fill="#544590" fill-opacity="0.51"/>
<path d="M18.3281 7.66406C18.3281 7.66406 18.3281 7.66406 18.3008 7.66406C17.2891 7.19922 16.168 6.84375 15.0469 6.65234C15.0195 6.65234 15.0195 6.625 15.0195 6.625L14.9922 6.65234C14.8281 6.92578 14.6914 7.22656 14.582 7.5C13.9805 7.41797 13.3516 7.36328 12.7227 7.36328C12.0938 7.36328 11.4922 7.41797 10.8906 7.5C10.7812 7.22656 10.6445 6.92578 10.4805 6.65234H10.4531C10.4258 6.65234 10.4258 6.65234 10.4258 6.65234C9.30469 6.84375 8.18359 7.19922 7.17188 7.66406C7.14453 7.66406 7.14453 7.66406 7.14453 7.66406C5.06641 10.7812 4.49219 13.8164 4.76562 16.8242C4.76562 16.8242 4.76562 16.8516 4.79297 16.8516C5.96875 17.7539 7.33594 18.4375 8.8125 18.875C8.83984 18.875 8.83984 18.875 8.86719 18.875C9.16797 18.4375 9.44141 18 9.6875 17.5352V17.5078C9.6875 17.4805 9.66016 17.4805 9.66016 17.4531C9.22266 17.2891 8.78516 17.0977 8.40234 16.8516C8.375 16.8516 8.375 16.8516 8.375 16.8242C8.375 16.7969 8.375 16.7969 8.40234 16.7695C8.48438 16.7148 8.56641 16.6602 8.64844 16.5781C8.64844 16.5781 8.64844 16.5781 8.67578 16.5781C8.67578 16.5781 8.67578 16.5781 8.70312 16.5781C11.3281 17.7812 14.1719 17.7812 16.7695 16.5781H16.7969H16.8242C16.9062 16.6602 16.9883 16.7148 17.0703 16.7695C17.0977 16.7969 17.0977 16.7969 17.0977 16.8242C17.0977 16.8516 17.0977 16.8516 17.0703 16.8516C16.6602 17.0977 16.25 17.2891 15.8125 17.4531C15.7852 17.4805 15.7852 17.4805 15.7852 17.5078V17.5352C16.0312 18 16.3047 18.4375 16.6055 18.875C16.6055 18.875 16.6328 18.875 16.6602 18.875C18.1094 18.4375 19.4766 17.7539 20.6797 16.8516C20.707 16.8516 20.707 16.8242 20.707 16.8242C21.0352 13.3516 20.1328 10.3438 18.3281 7.66406ZM10.0703 14.9922C9.27734 14.9922 8.62109 14.2539 8.62109 13.3789C8.62109 12.4766 9.27734 11.7656 10.0703 11.7656C10.8906 11.7656 11.5195 12.4766 11.5195 13.3789C11.5195 14.2539 10.8633 14.9922 10.0703 14.9922ZM15.4023 14.9922C14.6094 14.9922 13.9805 14.2539 13.9805 13.3789C13.9805 12.4766 14.6094 11.7656 15.4023 11.7656C16.2227 11.7656 16.8789 12.4766 16.8516 13.3789C16.8516 14.2539 16.2227 14.9922 15.4023 14.9922Z" fill="#CCCCCC"/>
</svg>
