<svg width="30" height="28" viewBox="0 0 30 28" fill="none" xmlns="http://www.w3.org/2000/svg">
<rect width="25" height="25" rx="12.5" fill="#544590" fill-opacity="0.51"/>
<path d="M12.7812 5.96875C9.03516 5.96875 6 9.00391 6 12.75C6 16.4961 9.03516 19.5312 12.7812 19.5312C16.5273 19.5312 19.5625 16.4961 19.5625 12.75C19.5625 9.00391 16.5273 5.96875 12.7812 5.96875ZM16.0898 10.6172L14.9961 15.8672C14.9141 16.25 14.6953 16.332 14.3672 16.168L12.6719 14.9102L11.8516 15.7031C11.7695 15.7852 11.6875 15.8672 11.5234 15.8672L11.6328 14.1445L14.7773 11.3008C14.9141 11.1914 14.75 11.1094 14.5586 11.2188L10.6758 13.6797L9.00781 13.1602C8.65234 13.0508 8.65234 12.7773 9.08984 12.6133L15.625 10.0977C15.9258 9.98828 16.1992 10.1797 16.0898 10.6172Z" fill="#CCCCCC"/>
</svg>
