<svg width="29" height="28" viewBox="0 0 29 28" fill="none" xmlns="http://www.w3.org/2000/svg">
<rect width="25" height="25" rx="12.5" fill="#544590" fill-opacity="0.51"/>
<path d="M20.0117 9.16797C19.8477 8.51172 19.3281 7.99219 18.6992 7.82812C17.5234 7.5 12.875 7.5 12.875 7.5C12.875 7.5 8.19922 7.5 7.02344 7.82812C6.39453 7.99219 5.875 8.51172 5.71094 9.16797C5.38281 10.3164 5.38281 12.7773 5.38281 12.7773C5.38281 12.7773 5.38281 15.2109 5.71094 16.3867C5.875 17.043 6.39453 17.5352 7.02344 17.6992C8.19922 18 12.875 18 12.875 18C12.875 18 17.5234 18 18.6992 17.6992C19.3281 17.5352 19.8477 17.043 20.0117 16.3867C20.3398 15.2109 20.3398 12.7773 20.3398 12.7773C20.3398 12.7773 20.3398 10.3164 20.0117 9.16797ZM11.3438 14.9922V10.5625L15.2266 12.7773L11.3438 14.9922Z" fill="#CCCCCC"/>
</svg>
