<svg width="30" height="29" viewBox="0 0 30 29" fill="none" xmlns="http://www.w3.org/2000/svg">
<rect width="25" height="25" rx="12.5" fill="#544590" fill-opacity="0.51"/>
<path d="M18.5508 10.9062C19.0977 10.4961 19.5898 10.0039 19.9727 9.42969C19.4805 9.64844 18.9062 9.8125 18.332 9.86719C18.9336 9.51172 19.3711 8.96484 19.5898 8.28125C19.043 8.60938 18.4141 8.85547 17.7852 8.99219C17.2383 8.41797 16.5 8.08984 15.6797 8.08984C14.0938 8.08984 12.8086 9.375 12.8086 10.9609C12.8086 11.1797 12.8359 11.3984 12.8906 11.6172C10.5117 11.4805 8.37891 10.332 6.95703 8.60938C6.71094 9.01953 6.57422 9.51172 6.57422 10.0586C6.57422 11.043 7.06641 11.918 7.85938 12.4375C7.39453 12.4102 6.92969 12.3008 6.54688 12.082V12.1094C6.54688 13.5039 7.53125 14.6523 8.84375 14.9258C8.625 14.9805 8.35156 15.0352 8.10547 15.0352C7.91406 15.0352 7.75 15.0078 7.55859 14.9805C7.91406 16.1289 8.98047 16.9492 10.2383 16.9766C9.25391 17.7422 8.02344 18.207 6.68359 18.207C6.4375 18.207 6.21875 18.1797 6 18.1523C7.25781 18.9727 8.76172 19.4375 10.4023 19.4375C15.6797 19.4375 18.5508 15.0898 18.5508 11.2891C18.5508 11.1523 18.5508 11.043 18.5508 10.9062Z" fill="#CCCCCC"/>
</svg>
